<svg xmlns="http://www.w3.org/2000/svg" width="74.836" height="72.776" viewBox="0 0 74.836 72.776">
  <g id="Group_9" data-name="Group 9" transform="translate(-4083.875 -2055.787)">
    <path id="Path_5" data-name="Path 5" d="M4087.357,1624.3a42.841,42.841,0,0,1,22.5-15.029c14.619-3.813,19.107-5.18,30.491-18.015s15.045-33.327,15.045-33.327" transform="translate(0 500.76)" fill="none" stroke="#58ba60" stroke-linecap="round" stroke-width="5"/>
    <path id="Path_6" data-name="Path 6" d="M4161.771,1982.082s-11.577-3.436-21.365,3.312-12.674,13.438-18.054,22.3-10.723,8.978-20.1,13-8.723,4.522-8.723,4.522" transform="translate(-6.168 99.847)" fill="none" stroke="#21c1f7" stroke-linecap="round" stroke-width="5"/>
    <path id="Path_7" data-name="Path 7" d="M4161.3,2019.877s-11.725-6.284-19.308-3.153-11.022,15.68-11.022,15.68a18.431,18.431,0,0,0-16.75-.917c-9.381,4.019-20.7,4.466-20.7,4.466" transform="translate(-6.168 89.107)" fill="none" stroke="#ffc000" stroke-linecap="round" stroke-width="5"/>
  </g>
</svg>
